<svg width="173" height="51" viewBox="0 0 173 51" fill="none" xmlns="http://www.w3.org/2000/svg">
<g filter="url(#filter0_d_172_158)">
<rect x="9" y="9" width="32.9429" height="32.9429" rx="16.4714" fill="#7C9ED9" shape-rendering="crispEdges"/>
<mask id="mask0_172_158" style="mask-type:alpha" maskUnits="userSpaceOnUse" x="9" y="8" width="33" height="34">
<path d="M41.9429 25.471C41.9429 28.3815 41.1881 31.1147 39.8631 33.4877C39.6803 33.8153 39.4848 34.1375 39.2803 34.4506C38.2631 36.0145 36.987 37.3937 35.5136 38.5287C35.1262 38.8273 34.7262 39.1079 34.3135 39.3703C31.7577 40.9994 28.7259 41.9424 25.4714 41.9424C16.3741 41.9424 9 34.5683 9 25.471C9 16.3737 16.3741 8.99951 25.4714 8.99951C34.5688 8.99951 41.9429 16.3737 41.9429 25.471Z" fill="#7C9ED9"/>
</mask>
<g mask="url(#mask0_172_158)">
<path d="M22.7384 32.6336C21.8203 31.4667 21.7344 31.3674 21.5295 31.1037C21.0011 30.4238 20.3351 29.8663 19.61 29.402C19.5891 29.3887 19.5684 29.3753 19.5477 29.362C18.1408 28.4538 16.3539 29.2801 17.8047 30.1164C19.2041 30.9236 21.8226 32.7691 23.2758 33.5618C23.3176 33.5846 23.3779 33.5978 23.3918 33.6432C23.4033 33.6806 23.4144 33.6412 23.3926 33.6087L22.7384 32.6336Z" fill="#1F2F50"/>
<path d="M41.1566 36.7752C39.9129 38.1833 38.4386 39.3692 36.804 40.2826C36.3742 40.523 35.9344 40.7435 35.4847 40.9441C34.8137 40.6125 34.0706 40.3937 33.2281 40.2744C30.0147 39.8206 26.2163 38.8624 23.0282 38.2262C22.7474 38.1698 22.4246 38.098 22.2209 37.9186C19.3892 35.448 17.2041 33.1664 14.3892 30.6816C15.7681 29.9388 17.9317 31.4045 19.188 32.1722C20.9328 33.1493 21.2818 33.4285 23.2327 34.498C25.5544 34.7534 27.8844 34.953 30.2109 35.176C30.8772 35.2415 31.4379 35.0628 31.5601 34.3493C31.7626 33.1859 30.0402 32.8417 28.9517 32.3838C28.1812 32.0598 27.5728 31.8524 26.6645 31.5127C24.9974 30.8893 23.4802 30.0623 24.023 29.2386L25.2832 29.4181C29.0052 29.9695 31.9199 30.304 35.635 30.8893C36.0364 30.9524 36.4966 31.203 36.7584 31.5127C38.239 33.2561 39.5694 35.1303 41.1566 36.7752Z" fill="#1F2F50"/>
<path d="M16.2406 16.4915C16.2361 18.3944 17.7102 20.0034 19.6067 20.1655C20.1485 20.2111 20.6682 20.1404 21.1436 19.9719C21.574 19.8206 22.0504 19.9514 22.3412 20.2981L23.1534 21.2717C23.4343 21.6106 23.4782 22.0821 23.2799 22.4752C23.0997 22.8344 22.9953 23.2399 22.9911 23.6704C22.9755 25.0953 24.0912 26.3058 25.5111 26.4045C27.056 26.5116 28.3669 25.3167 28.4177 23.7836C28.4264 23.5236 28.3996 23.2682 28.3366 23.0289C28.2175 22.5673 28.3493 22.0794 28.6958 21.7523L29.6702 20.8404C29.9828 20.5471 30.4198 20.4287 30.84 20.5084C30.983 20.5346 31.1312 20.5488 31.2815 20.5448C32.2793 20.5146 33.1151 19.7312 33.2098 18.7372C33.3225 17.5382 32.3644 16.5163 31.1601 16.5512C30.1579 16.582 29.3207 17.3722 29.2336 18.372C29.2198 18.5247 29.2238 18.675 29.2449 18.8185C29.3038 19.2498 29.16 19.6807 28.841 19.9772L27.9209 20.8391C27.5578 21.1774 27.0421 21.2791 26.5711 21.1206C26.3239 21.0384 26.0631 20.9894 25.7918 20.9802C25.5905 20.9729 25.3946 20.9898 25.2054 21.0237C24.8252 21.0941 24.4367 20.9472 24.1882 20.649L23.2584 19.5333C22.965 19.1848 22.9113 18.6898 23.1336 18.2913C23.4293 17.766 23.5978 17.163 23.6051 16.5159C23.6194 14.5328 22.0334 12.8778 20.0501 12.8083C17.9739 12.7352 16.2423 14.3953 16.2381 16.4896L16.2406 16.4915Z" fill="white"/>
<path d="M25.5247 15.9982C25.9536 15.4394 26.7558 15.3321 27.316 15.7621C27.8762 16.192 27.9813 16.9929 27.5511 17.5534C27.121 18.1139 26.3201 18.2195 25.7599 17.7895C25.1997 17.3596 25.0946 16.5587 25.5247 15.9982Z" fill="white"/>
<path d="M30.3306 22.9968C31.2062 21.856 32.8439 21.637 33.9876 22.5148C35.1314 23.3926 35.346 25.0278 34.4678 26.1721C33.5895 27.3164 31.9545 27.5319 30.8108 26.6541C29.667 25.7763 29.4524 24.1411 30.3306 22.9968Z" fill="white"/>
<path d="M17.46 22.4953C18.0809 21.6863 19.2423 21.5309 20.0534 22.1534C20.8645 22.776 21.0168 23.9356 20.3939 24.7471C19.7711 25.5586 18.6116 25.7115 17.8005 25.0889C16.9894 24.4664 16.8371 23.3068 17.46 22.4953Z" fill="white"/>
</g>
</g>
<path d="M53.309 36.643V32.989H58.7144C60.0834 32.989 61.2812 32.7072 62.3079 32.1435C63.3346 31.5597 64.1298 30.7444 64.6935 29.6975C65.2774 28.6506 65.5693 27.4125 65.5693 25.9832C65.5693 24.5941 65.2774 23.3862 64.6935 22.3595C64.1097 21.3126 63.3044 20.5073 62.2777 19.9437C61.251 19.3598 60.0632 19.0679 58.7144 19.0679H53.2184V15.414H58.7748C60.3451 15.414 61.7946 15.6757 63.1233 16.1992C64.4721 16.7226 65.6397 17.4675 66.6262 18.4338C67.6328 19.38 68.4078 20.4973 68.9514 21.7857C69.5151 23.0741 69.7969 24.4834 69.7969 26.0134C69.7969 27.5434 69.5151 28.9627 68.9514 30.2713C68.4078 31.5597 67.6428 32.6871 66.6564 33.6534C65.6699 34.5996 64.5023 35.3344 63.1535 35.8578C61.8248 36.3812 60.3853 36.643 58.8352 36.643H53.309Z" fill="white"/>
<path d="M50.5006 36.643V15.414H54.6075V36.643H50.5006Z" fill="white"/>
<path d="M78.7074 36.9449C77.1774 36.9449 75.8185 36.6228 74.6307 35.9786C73.4429 35.3143 72.4967 34.4083 71.7921 33.2608C71.1076 32.1133 70.7654 30.8047 70.7654 29.3351C70.7654 27.8856 71.0976 26.5972 71.7619 25.4698C72.4464 24.3223 73.3725 23.4164 74.5401 22.752C75.7077 22.0676 77.0062 21.7253 78.4356 21.7253C79.8448 21.7253 81.0829 22.0474 82.1499 22.6916C83.237 23.3157 84.0826 24.1814 84.6865 25.2886C85.3106 26.3758 85.6226 27.6139 85.6226 29.003C85.6226 29.2647 85.6025 29.5364 85.5622 29.8183C85.5421 30.08 85.4918 30.382 85.4113 30.7242L73.151 30.7544V27.795L83.5692 27.7649L81.9687 29.003C81.9285 28.1373 81.7674 27.4125 81.4856 26.8287C81.2238 26.2449 80.8313 25.802 80.3078 25.5C79.8046 25.1779 79.1805 25.0169 78.4356 25.0169C77.6505 25.0169 76.966 25.198 76.3822 25.5604C75.7983 25.9027 75.3454 26.3959 75.0233 27.0401C74.7213 27.6642 74.5703 28.4091 74.5703 29.2747C74.5703 30.1605 74.7313 30.9356 75.0535 31.6C75.3957 32.2442 75.8789 32.7475 76.5029 33.1098C77.127 33.4521 77.8518 33.6232 78.6772 33.6232C79.422 33.6232 80.0965 33.5024 80.7004 33.2608C81.3044 32.9991 81.8278 32.6166 82.2707 32.1133L84.5959 34.4385C83.8913 35.2639 83.0256 35.888 81.9989 36.3108C80.9923 36.7336 79.8951 36.9449 78.7074 36.9449Z" fill="white"/>
<path d="M87.1632 36.643V14.8101H91.1191V36.643H87.1632Z" fill="white"/>
<path d="M93.7182 36.643V22.0575H97.7043V36.643H93.7182ZM95.7112 19.7021C95.067 19.7021 94.5335 19.4907 94.1108 19.0679C93.688 18.625 93.4766 18.0815 93.4766 17.4373C93.4766 16.8132 93.688 16.2797 94.1108 15.8368C94.5335 15.3939 95.067 15.1724 95.7112 15.1724C96.3756 15.1724 96.9091 15.3939 97.3117 15.8368C97.7345 16.2797 97.9459 16.8132 97.9459 17.4373C97.9459 18.0815 97.7345 18.625 97.3117 19.0679C96.9091 19.4907 96.3756 19.7021 95.7112 19.7021Z" fill="white"/>
<path d="M110.117 36.643V28.2782C110.117 27.4125 109.845 26.7079 109.302 26.1644C108.758 25.6208 108.053 25.349 107.188 25.349C106.624 25.349 106.121 25.4698 105.678 25.7114C105.235 25.953 104.883 26.2952 104.621 26.7381C104.379 27.181 104.259 27.6944 104.259 28.2782L102.719 27.4931C102.719 26.3456 102.96 25.349 103.443 24.5035C103.947 23.6378 104.631 22.9634 105.497 22.4803C106.382 21.9971 107.379 21.7555 108.486 21.7555C109.553 21.7555 110.51 22.0273 111.355 22.5709C112.201 23.0943 112.865 23.7888 113.348 24.6545C113.831 25.5 114.073 26.416 114.073 27.4025V36.643H110.117ZM100.303 36.643V22.0575H104.259V36.643H100.303Z" fill="white"/>
<path d="M123.329 36.9449C121.799 36.9449 120.44 36.6228 119.252 35.9786C118.065 35.3143 117.118 34.4083 116.414 33.2608C115.729 32.1133 115.387 30.8047 115.387 29.3351C115.387 27.8856 115.719 26.5972 116.384 25.4698C117.068 24.3223 117.994 23.4164 119.162 22.752C120.329 22.0676 121.628 21.7253 123.057 21.7253C124.467 21.7253 125.705 22.0474 126.772 22.6916C127.859 23.3157 128.704 24.1814 129.308 25.2886C129.932 26.3758 130.244 27.6139 130.244 29.003C130.244 29.2647 130.224 29.5364 130.184 29.8183C130.164 30.08 130.114 30.382 130.033 30.7242L117.773 30.7544V27.795L128.191 27.7649L126.59 29.003C126.55 28.1373 126.389 27.4125 126.107 26.8287C125.846 26.2449 125.453 25.802 124.93 25.5C124.426 25.1779 123.802 25.0169 123.057 25.0169C122.272 25.0169 121.588 25.198 121.004 25.5604C120.42 25.9027 119.967 26.3959 119.645 27.0401C119.343 27.6642 119.192 28.4091 119.192 29.2747C119.192 30.1605 119.353 30.9356 119.675 31.6C120.017 32.2442 120.501 32.7475 121.125 33.1098C121.749 33.4521 122.474 33.6232 123.299 33.6232C124.044 33.6232 124.718 33.5024 125.322 33.2608C125.926 32.9991 126.45 32.6166 126.892 32.1133L129.218 34.4385C128.513 35.2639 127.647 35.888 126.621 36.3108C125.614 36.7336 124.517 36.9449 123.329 36.9449Z" fill="white"/>
<path d="M137.885 36.9449C136.556 36.9449 135.358 36.6128 134.291 35.9484C133.224 35.2841 132.389 34.3781 131.785 33.2306C131.181 32.0831 130.879 30.7947 130.879 29.3653C130.879 27.9158 131.181 26.6173 131.785 25.4698C132.389 24.3223 133.224 23.4164 134.291 22.752C135.358 22.0877 136.556 21.7555 137.885 21.7555C138.932 21.7555 139.868 21.9669 140.693 22.3897C141.519 22.8124 142.173 23.4063 142.656 24.1713C143.159 24.9162 143.431 25.7617 143.471 26.7079V31.9623C143.431 32.9286 143.159 33.7842 142.656 34.5291C142.173 35.274 141.519 35.8679 140.693 36.3108C139.868 36.7336 138.932 36.9449 137.885 36.9449ZM138.61 33.291C139.717 33.291 140.613 32.9286 141.297 32.2039C141.982 31.459 142.324 30.5028 142.324 29.3351C142.324 28.5701 142.163 27.8957 141.841 27.3119C141.539 26.7079 141.106 26.2449 140.542 25.9228C139.999 25.5806 139.354 25.4094 138.61 25.4094C137.885 25.4094 137.241 25.5806 136.677 25.9228C136.133 26.2449 135.701 26.7079 135.378 27.3119C135.076 27.8957 134.925 28.5701 134.925 29.3351C134.925 30.1203 135.076 30.8148 135.378 31.4188C135.701 32.0026 136.133 32.4656 136.677 32.8079C137.241 33.13 137.885 33.291 138.61 33.291ZM142.113 36.643V32.7173L142.747 29.1539L142.113 25.651V22.0575H146.038V36.643H142.113Z" fill="white"/>
<path d="M150.776 36.643V15.9878H154.732V36.643H150.776ZM147.364 25.5302V22.0575H158.144V25.5302H147.364Z" fill="white"/>
<path d="M166.085 36.9449C164.555 36.9449 163.196 36.6228 162.008 35.9786C160.82 35.3143 159.874 34.4083 159.169 33.2608C158.485 32.1133 158.143 30.8047 158.143 29.3351C158.143 27.8856 158.475 26.5972 159.139 25.4698C159.824 24.3223 160.75 23.4164 161.917 22.752C163.085 22.0676 164.384 21.7253 165.813 21.7253C167.222 21.7253 168.46 22.0474 169.527 22.6916C170.614 23.3157 171.46 24.1814 172.064 25.2886C172.688 26.3758 173 27.6139 173 29.003C173 29.2647 172.98 29.5364 172.94 29.8183C172.919 30.08 172.869 30.382 172.789 30.7242L160.528 30.7544V27.795L170.947 27.7649L169.346 29.003C169.306 28.1373 169.145 27.4125 168.863 26.8287C168.601 26.2449 168.209 25.802 167.685 25.5C167.182 25.1779 166.558 25.0169 165.813 25.0169C165.028 25.0169 164.343 25.198 163.76 25.5604C163.176 25.9027 162.723 26.3959 162.401 27.0401C162.099 27.6642 161.948 28.4091 161.948 29.2747C161.948 30.1605 162.109 30.9356 162.431 31.6C162.773 32.2442 163.256 32.7475 163.88 33.1098C164.504 33.4521 165.229 33.6232 166.055 33.6232C166.799 33.6232 167.474 33.5024 168.078 33.2608C168.682 32.9991 169.205 32.6166 169.648 32.1133L171.973 34.4385C171.269 35.2639 170.403 35.888 169.376 36.3108C168.37 36.7336 167.273 36.9449 166.085 36.9449Z" fill="white"/>
<defs>
<filter id="filter0_d_172_158" x="0" y="0" width="50.9429" height="50.9429" filterUnits="userSpaceOnUse" color-interpolation-filters="sRGB">
<feFlood flood-opacity="0" result="BackgroundImageFix"/>
<feColorMatrix in="SourceAlpha" type="matrix" values="0 0 0 0 0 0 0 0 0 0 0 0 0 0 0 0 0 0 127 0" result="hardAlpha"/>
<feMorphology radius="3" operator="erode" in="SourceAlpha" result="effect1_dropShadow_172_158"/>
<feOffset/>
<feGaussianBlur stdDeviation="6"/>
<feComposite in2="hardAlpha" operator="out"/>
<feColorMatrix type="matrix" values="0 0 0 0 0.486275 0 0 0 0 0.619608 0 0 0 0 0.85098 0 0 0 0.4 0"/>
<feBlend mode="normal" in2="BackgroundImageFix" result="effect1_dropShadow_172_158"/>
<feBlend mode="normal" in="SourceGraphic" in2="effect1_dropShadow_172_158" result="shape"/>
</filter>
</defs>
</svg>