<svg width="73" height="44" viewBox="0 0 73 44" fill="none" xmlns="http://www.w3.org/2000/svg">
<path d="M30.5532 19.0972C33.7079 19.0194 33.6959 20.7406 33.6461 23.2588C33.6304 24.0539 33.6657 24.895 33.6441 25.6981C33.0169 25.6923 32.4849 25.6729 31.8498 25.6845C31.8317 25.3977 31.8435 25.2001 31.8595 24.9142C31.789 24.9831 31.7081 25.0534 31.64 25.1219C30.5937 26.1746 28.8593 26.0564 27.9968 24.8783C27.7042 24.3182 27.6399 23.4397 27.9273 22.8659C28.5491 21.6247 30.0895 21.7362 31.2555 21.6099C31.519 21.5813 31.7671 21.5655 31.8893 21.3103C31.8853 21.2809 31.875 21.2169 31.8611 21.1937C31.3962 20.4218 30.483 20.5194 29.8117 20.9503C29.5743 21.1027 29.3667 21.3093 29.1273 21.4014C28.8962 21.4084 27.9726 20.7023 27.9252 20.5226C27.926 20.3411 28.0152 20.1944 28.1409 20.0679C29.0053 19.1979 29.4139 19.1598 30.5532 19.0972ZM29.9429 24.2599C30.3902 24.3672 30.8436 24.3397 31.2412 24.0904C31.5401 23.907 31.7497 23.6078 31.8201 23.2641C31.8489 23.1255 31.8651 22.9945 31.7921 22.8734L31.6718 22.8738C31.126 22.9405 29.5151 22.9817 29.5618 23.7655C29.5742 23.9721 29.7901 24.1475 29.9429 24.2599Z" fill="white"/>
<path d="M38.1965 19.0941C38.9749 19.0523 39.6562 19.0751 40.1797 19.7483C40.4611 20.1134 40.6584 20.5362 40.7573 20.9866C40.829 21.3291 40.8745 25.1905 40.8262 25.5974C40.7059 25.7127 39.3788 25.6817 39.0712 25.7C39.0005 24.6343 39.2846 21.9813 38.7553 21.1907C38.6053 20.9667 38.3921 20.782 38.1205 20.7343C37.7495 20.6691 37.376 20.8474 37.0834 21.0568C36.6105 21.48 36.5749 22.2132 36.5626 22.8101C36.5428 23.7679 36.5559 24.7331 36.566 25.6912C35.9799 25.6658 35.393 25.6671 34.807 25.6954C34.7485 25.0652 34.7826 23.5096 34.7901 22.8247C34.8021 21.7272 34.7403 20.2655 34.8129 19.2082L35.1501 19.2C35.4393 19.1933 36.2969 19.1315 36.4813 19.3077C36.5425 19.4878 36.4428 19.6624 36.4372 19.895C36.6496 20.0018 37.1573 19.367 37.5068 19.2457C37.8696 19.1197 37.7973 19.1302 38.1965 19.0941Z" fill="white"/>
<path d="M24.2135 19.0965C25.1566 19.0631 26.038 19.16 26.8444 19.6913C27.3248 20.0079 26.9509 20.3944 26.6989 20.7073C26.5314 20.9152 26.3584 21.1199 26.1874 21.3247C25.5469 20.8944 24.6241 20.3484 23.8201 20.7917C23.7 20.8579 23.6698 20.9692 23.6472 21.0951C23.6836 21.1902 23.7151 21.272 23.8235 21.314C25.0939 21.8122 27.0398 21.6867 27.1851 23.4962C27.3279 25.2739 25.9657 25.7981 24.4508 25.843C24.3047 25.8451 24.1585 25.8428 24.0126 25.8358C23.0885 25.7852 22.1543 25.5206 21.5203 24.8128C21.607 24.599 22.2717 23.4672 22.5193 23.5412C22.8026 23.6259 23.2511 23.9557 23.5955 24.077C24.0041 24.221 25.4094 24.5164 25.3489 23.7629C24.8584 22.9944 21.9965 23.4094 21.819 21.3471C21.7662 20.7881 21.9462 20.2321 22.3164 19.8103C22.869 19.1735 23.4409 19.1457 24.2135 19.0965Z" fill="white"/>
<path d="M23.7063 16.4957C23.9764 16.0044 24.5863 14.4009 25.1765 14.3534C25.714 14.5224 25.5323 16.9565 25.4594 17.503C25.3334 17.5889 24.9697 17.5413 24.7927 17.5308C24.7291 17.2778 24.8292 16.5028 24.8315 16.1299C24.5179 16.5463 24.2415 17.1891 23.8678 17.5189C23.7568 17.6169 23.4462 17.4904 23.3014 17.4383C23.0695 16.9652 22.9005 16.547 22.5505 16.1519C22.5371 16.5625 22.5894 17.1095 22.6239 17.5277C22.3388 17.5306 22.1121 17.5432 21.8279 17.5673C21.7961 17.02 21.7763 14.869 21.8857 14.4166C21.9851 14.4274 22.0842 14.4402 22.183 14.4549C22.8656 14.5575 23.221 15.8354 23.7063 16.4957Z" fill="white"/>
<path d="M27.6255 14.4639C28.4151 14.5531 29.2072 14.5046 30.0017 14.5137C30.4649 14.519 30.3542 14.9488 30.3347 15.3007C29.9918 15.2896 29.6856 15.287 29.3423 15.2559L29.3137 16.5475C29.3112 16.8788 29.3165 17.2101 29.3297 17.5412L28.5783 17.531C28.5282 16.797 28.5731 15.9978 28.5201 15.2211C27.6372 15.3635 27.5225 15.3873 27.6255 14.4639Z" fill="white"/>
<path d="M28.9293 28.1611C30.1022 28.2585 30.3025 29.3918 29.5743 30.1731C29.4017 30.2285 29.1465 30.273 28.9636 30.3106C28.6666 30.2647 28.5827 30.2385 28.3027 30.1352C27.6165 29.359 27.7922 28.2888 28.9293 28.1611ZM28.2909 29.1648C28.4337 29.5964 28.5161 29.8336 29.0192 29.9219C29.3558 29.6874 29.7282 29.4133 29.5 28.9339C29.4368 28.8012 29.035 28.5813 28.9011 28.5675C28.5164 28.7527 28.4873 28.7985 28.2909 29.1648Z" fill="white"/>
<path d="M38.133 28.2191C38.4977 28.0921 38.9025 28.1721 39.1915 28.4282C39.4806 28.6844 39.609 29.0767 39.5272 29.4543C39.4455 29.8319 39.1663 30.1359 38.7972 30.2494C38.2408 30.4203 37.6501 30.1139 37.4691 29.5605C37.288 29.007 37.5833 28.4104 38.133 28.2191ZM38.5345 29.9042C38.7904 29.8029 38.9244 29.7509 39.0362 29.4788C39.105 29.3154 39.1023 29.1307 39.0287 28.9695C38.9164 28.7184 38.7045 28.6222 38.4495 28.5701C37.636 28.8688 37.7104 29.7427 38.5345 29.9042Z" fill="white"/>
<path d="M33.1371 28.2003C34.6642 27.9502 34.263 30.1344 34.0679 30.3041C33.9126 30.3268 33.945 30.3071 33.7761 30.1962C33.5836 30.1612 33.3277 30.2683 33.1264 30.3266C32.9608 30.2827 32.7291 30.2401 32.6361 30.097C31.7983 28.9716 33.4021 29.2228 33.6752 28.9326C33.6887 28.7857 33.6871 28.7681 33.65 28.6252C33.1105 28.3041 33.1586 28.8396 32.7412 28.8267C32.5807 28.7325 32.5585 28.6875 32.5931 28.52C32.8169 28.2458 32.8178 28.2577 33.1371 28.2003ZM33.3504 29.9097C33.5843 29.813 33.776 29.7261 33.7337 29.4363C33.5607 29.243 33.5042 29.2955 33.2443 29.3206C33.0195 29.3995 32.8432 29.5333 32.9296 29.7853C33.0422 29.9028 33.1872 29.9012 33.3504 29.9097Z" fill="white"/>
<path d="M26.3269 14.4708C26.5508 14.4612 26.8321 14.4264 27.0241 14.5327C27.1251 14.7517 27.1467 17.2807 27.0737 17.5288L26.3198 17.5317C26.2774 16.9602 26.2723 15.0144 26.3269 14.4708Z" fill="white"/>
<path d="M23.241 28.1873C24.3176 28.3617 25.0708 27.6507 25.0146 29.4376C25.0067 29.6851 25.0108 30.2416 24.7387 30.3343C24.4791 30.115 24.5613 29.2405 24.5724 28.8994C24.5376 28.8767 24.2285 28.6647 24.2258 28.6641C23.3008 28.4461 23.9002 30.1427 23.3764 30.4158L23.2965 30.3903C23.181 30.1343 23.1046 28.3861 23.241 28.1873Z" fill="white"/>
<path d="M26.4832 28.2016C27.4792 28.102 27.4351 28.6377 27.4427 29.4825C27.4449 29.7232 27.4474 30.2553 27.1955 30.3508C26.9442 30.1555 27.0157 29.2326 27.023 28.9067C26.9132 28.776 26.8357 28.6946 26.7129 28.5757C25.5553 28.7251 26.6027 30.219 25.7911 30.3507C25.5406 30.1722 25.6171 28.6303 25.6365 28.3002C25.64 28.2393 25.9092 28.2398 25.959 28.2451C26.156 28.2659 26.2916 28.262 26.4832 28.2016Z" fill="white"/>
<path d="M40.9129 28.1985C42.0361 28.0849 41.8108 29.1032 41.8013 29.8628C41.7991 30.0362 41.7995 30.3298 41.5983 30.3592C40.9874 30.0254 41.8097 28.7565 40.9184 28.5905C39.9711 28.9446 40.7464 30.0933 40.2371 30.3939C39.9368 30.1644 40.0383 29.4621 40.0359 29.1201C40.0344 28.9044 39.9559 28.5837 39.999 28.386C40.1826 28.2123 40.5608 28.2704 40.9129 28.1985Z" fill="white"/>
<path d="M35.1164 27.6539C35.6632 27.6881 35.2694 27.9587 35.4882 28.1942C35.521 28.2295 35.8489 28.1763 35.9827 28.3181C36.0129 28.4759 36.0244 28.4175 35.9511 28.5418C35.8088 28.6301 35.6028 28.6348 35.4318 28.6531C35.4168 29.049 35.421 29.3857 35.4322 29.7823C35.6095 29.821 35.7968 29.8457 35.9413 29.9526C36.0159 30.0911 36.0021 30.0271 35.9696 30.2095C35.5387 30.303 35.5048 30.2862 35.0983 30.1511C34.8561 29.5911 35.0162 29.3908 34.9036 28.8228C34.8404 28.5039 34.6191 28.6111 34.5401 28.3385C34.6395 28.1854 34.8427 28.2483 34.8858 28.154C35.0188 27.8629 34.8446 27.915 35.1164 27.6539Z" fill="white"/>
<path d="M30.1331 28.2408C30.2193 28.2319 30.4391 28.2053 30.5076 28.238C30.8268 28.39 31.0393 29.2075 31.1629 29.5427C31.3632 29.1594 31.5378 28.3499 31.9484 28.2374C32.1049 28.2577 32.0631 28.2316 32.1624 28.3153C32.1579 28.4702 32.0086 28.6297 31.9179 28.9064C31.656 29.3835 31.6967 29.8338 31.1515 30.4225C30.9997 30.1447 30.8565 29.8825 30.7156 29.5965C30.5217 29.2033 30.4044 28.7013 30.1359 28.3668C30.1137 28.3392 30.129 28.2881 30.1331 28.2408Z" fill="white"/>
<path d="M22.127 27.3718C22.2561 27.3773 22.568 27.3849 22.5691 27.5709C22.5726 28.121 22.69 29.8736 22.4715 30.3181C22.3582 30.3567 22.3405 30.3625 22.2213 30.3618L22.1526 30.2919C22.0494 29.9772 22.027 27.6317 22.127 27.3718Z" fill="white"/>
<path d="M36.5092 28.1862C36.6264 28.1988 36.8578 28.2104 36.9238 28.301C36.974 28.6936 36.969 29.9813 36.8206 30.3411C36.6428 30.3417 36.7012 30.3658 36.5847 30.2689C36.4109 29.9331 36.4614 28.5978 36.5092 28.1862Z" fill="white"/>
<path d="M36.4657 27.4272C36.6517 27.4051 36.8167 27.3732 36.9709 27.4836C37.0558 27.6697 37.0163 27.7482 36.9453 27.9455C36.6818 27.918 36.5253 27.9513 36.3769 27.7035C36.3875 27.5176 36.3616 27.5821 36.4657 27.4272Z" fill="white"/>
<path d="M50.3756 37.4618C50.1918 37.489 50.0123 37.4966 49.8277 37.5128C48.4892 37.6302 47.1541 37.7942 45.82 37.9564L31.4406 39.6505L14.0697 41.7797C13.8314 41.8065 13.0362 41.8976 12.8663 41.8279C12.6066 41.4459 11.4337 37.1323 11.2336 36.4633L4.88345 15.2876C4.14568 12.8215 3.34446 10.3576 2.66123 7.87588C2.46223 7.15301 2.1612 6.4155 2.01526 5.66307C2.14506 5.2614 7.17152 3.37617 7.91964 2.96411C8.01708 3.5245 9.31914 7.8678 9.57962 8.27772C9.58924 8.45621 10.0969 9.84393 10.1861 10.1226C10.4918 11.0784 10.8277 12.0604 11.1343 13.0159L17.4678 32.445C17.7093 33.1948 19.3048 38.3873 19.512 38.6515C19.6579 38.7056 20.6341 38.4364 20.8662 38.3816L23.3347 37.8028C24.1364 37.6077 24.9424 37.4773 25.7486 37.2805C27.6996 36.8043 29.7001 36.4084 31.6601 35.9658L41.9503 33.6312L45.9372 32.7443C46.3086 32.6627 47.544 32.4516 47.8189 32.2655C47.8154 32.265 50.8475 31.7863 51.0103 31.7618C51.1434 32.1613 50.4297 36.6993 50.3756 37.4618Z" fill="#58C1C4"/>
<path d="M7.91968 2.96411C8.48642 2.96764 10.0243 3.26586 10.6818 3.35572L17.9268 4.3805L30.1203 6.09152L34.3361 6.67843C35.3092 6.8124 36.5698 6.86366 37.4467 7.22645L42.1639 15.727C42.5904 16.4852 43.0125 17.2459 43.4303 18.009C43.5922 18.299 43.8769 18.6743 43.949 18.9697L43.9581 19.0038C43.9624 19.0252 43.9667 19.0465 43.9709 19.0678C43.11 19.2234 42.5885 19.5301 42.0492 20.2399C41.7868 20.5851 41.6698 21.0075 41.4948 21.2785C41.3346 21.1029 41.2178 20.7885 41.0946 20.5726C40.6674 19.8243 40.209 19.0986 39.7781 18.3507L37.9039 15.0762C37.7315 14.7715 36.6982 12.9521 36.6304 12.9318C35.3801 12.5556 30.7141 11.8724 29.5867 11.6792L15.4636 9.27735C14.2913 9.08468 13.0876 8.9085 11.9213 8.68833C11.4526 8.59982 10.022 8.41943 9.60774 8.28696L9.57966 8.27772C9.31917 7.8678 8.01711 3.5245 7.91968 2.96411Z" fill="#AFE0E2"/>
<path d="M49.5086 16.6345C50.0625 16.6579 50.6933 16.6322 51.2511 16.6207C51.3254 17.3301 51.2653 19.2648 51.2232 20.0138C51.6183 19.7699 51.8231 19.3904 52.2873 19.2371C54.421 18.5327 56.2439 19.9699 56.2838 22.1695C56.3062 23.402 56.2053 24.1626 55.3546 25.0929C55.3434 25.1035 55.3323 25.1139 55.3207 25.1242C54.5851 25.7857 53.3789 26.0489 52.4453 25.7024C51.9103 25.5037 51.6303 25.2533 51.2546 24.8373C51.2438 25.1161 51.2464 25.4176 51.2434 25.6985C50.6336 25.6697 50.1192 25.655 49.5051 25.7111C49.4716 22.8016 49.4266 19.5202 49.5086 16.6345ZM53.0946 24.1104C53.9972 23.9737 54.619 23.1315 54.4842 22.2281C54.3489 21.3247 53.5085 20.7011 52.6055 20.8344C51.6999 20.968 51.0746 21.8118 51.2099 22.7177C51.3452 23.6236 52.1898 24.2476 53.0946 24.1104Z" fill="white"/>
<path d="M46.4739 16.6502C47.0266 16.6444 47.6471 16.6496 48.1933 16.6165L48.1941 23.308C48.1933 23.9504 48.2079 24.8706 48.1675 25.5329C48.1405 25.569 48.1177 25.5994 48.0992 25.6243C47.9451 25.6771 47.9193 25.6782 47.757 25.6819L47.7166 25.7278L47.6819 25.6712C47.3963 25.6165 46.8492 25.6526 46.5194 25.6248L46.5182 24.8641C45.5902 25.5778 45.4124 25.7408 44.1521 25.8863C42.811 25.627 41.8937 25.0063 41.5563 23.6362C41.352 22.8066 41.4614 22.1173 41.4948 21.2785C41.6698 21.0075 41.7868 20.5852 42.0491 20.2399C42.5884 19.5301 43.1099 19.2234 43.9709 19.0678C45.5052 19.0864 45.3875 19.1984 46.5345 20.0568C46.4404 19.0096 46.4748 17.7189 46.4739 16.6502ZM46.3073 23.12C46.3691 23.1435 46.3717 23.1358 46.4383 23.1229C46.5109 23.0098 46.51 22.921 46.5242 22.7909C46.6272 21.8383 45.9964 20.7907 44.9701 20.7225C45.1037 21.0883 46.0759 22.8431 46.3073 23.12Z" fill="white"/>
<path d="M46.3074 23.12C46.4177 23.7899 44.5841 24.8482 43.5578 23.54C43.2598 23.1549 43.128 22.6666 43.1911 22.1838C43.2929 21.3467 44.1225 20.6176 44.9702 20.7225C45.1037 21.0883 46.0759 22.8431 46.3074 23.12Z" fill="#AFE0E2"/>
<path d="M59.8909 18.9955C61.7958 18.7869 63.5105 20.1609 63.723 22.0667C63.9356 23.9726 62.5662 25.691 60.6622 25.9078C58.7521 26.1254 57.0285 24.75 56.8151 22.8384C56.6016 20.9266 57.9801 19.2048 59.8909 18.9955ZM60.4402 24.1236C61.3548 24.0301 62.0182 23.2096 61.9186 22.2953C61.8194 21.381 60.995 20.7225 60.082 20.8279C59.1773 20.9323 58.5267 21.7479 58.625 22.6538C58.7234 23.5597 59.5345 24.2162 60.4402 24.1236Z" fill="white"/>
<path d="M67.005 20.963C67.0548 20.8655 67.0973 20.795 67.1527 20.7105C68.6071 18.493 68.4319 19.4801 70.3905 19.1298C70.1393 19.8825 68.602 21.6809 68.0356 22.4005C68.3624 22.8063 70.4034 25.3705 70.4506 25.623C70.3578 25.7031 70.2969 25.6943 70.1766 25.6993C69.6957 25.688 68.5616 25.8413 68.2305 25.4645C67.7955 24.9689 67.37 24.3179 66.984 23.7684C66.7504 24.1162 65.7095 25.7115 65.2882 25.6889C64.9305 25.6697 63.6929 25.7686 63.486 25.5978C64.2778 24.4575 65.0902 23.4681 65.8924 22.3621C65.4381 21.8005 64.9898 21.2075 64.5496 20.6331C64.2482 20.24 63.6667 19.6245 63.6423 19.1434C63.9798 19.194 65.6201 19.2016 65.7369 19.3396C66.1578 19.8357 66.5344 20.4677 67.005 20.963Z" fill="white"/>
<path d="M44.1521 25.8863C45.4124 25.7408 45.5902 25.5778 46.5182 24.8641L46.5194 25.6247C46.8492 25.6525 47.3963 25.6165 47.6819 25.6712L47.7166 25.7278C47.9606 26.2119 48.9413 27.7942 49.0238 28.1668C49.2857 28.1551 49.515 28.2038 49.7727 28.2465C50.1729 29.1239 49.85 29.4108 50.0488 29.9585C50.3803 30.5318 50.7449 31.1571 51.0102 31.7618C50.8475 31.7863 47.8154 32.265 47.8188 32.2655C47.6076 32.0133 46.8844 30.7283 46.6603 30.3561C46.3855 30.2937 46.203 30.2392 45.9354 30.15C45.6636 29.4629 45.8521 29.3438 45.7736 28.7094C45.5979 28.443 45.5099 28.2132 45.2952 27.9733C45.1891 27.7022 45.144 27.6344 44.983 27.3964C44.7159 26.9002 44.2921 26.4023 44.1521 25.8863Z" fill="#AFE0E2"/>
<path d="M49.0238 28.1668C49.2857 28.1551 49.5151 28.2038 49.7727 28.2465C50.1729 29.1239 49.85 29.4108 50.0488 29.9585C49.9406 30.0826 49.832 30.2353 49.6791 30.2846C49.2836 30.1439 49.8281 28.5546 49.0698 28.5773C48.2629 28.6014 48.7511 30.0122 48.5308 30.2317C48.4046 30.2398 48.3088 30.2612 48.2019 30.2022C48.1332 29.9368 48.165 28.6551 48.1036 28.1929C48.4175 28.192 48.7108 28.1945 49.0238 28.1668Z" fill="white"/>
<path d="M45.7736 28.7094C45.774 28.4694 45.7663 28.1626 46.0883 28.1394C46.4885 28.5508 45.8255 29.9495 46.7509 29.9064C47.5419 29.8696 46.8145 28.383 47.3448 28.1506C47.4762 28.17 47.4839 28.1486 47.5668 28.2298C47.5728 28.5864 47.6514 29.9262 47.4599 30.1538C47.1399 30.3053 47.1189 29.912 46.6603 30.3561C46.3855 30.2937 46.203 30.2392 45.9354 30.15C45.6636 29.4629 45.8521 29.3439 45.7736 28.7094Z" fill="white"/>
<path d="M61.0005 28.2063C61.6124 28.1154 61.7936 28.3194 62.5356 28.1905C62.4751 28.9515 62.6297 29.8844 62.3845 30.5926C62.3591 30.6661 62.1573 30.9183 62.0976 30.9933C61.5733 31.127 60.8691 31.2581 60.6059 30.6612C60.5646 30.5915 60.5719 30.5756 60.5775 30.4961C60.9172 30.3255 61.2762 30.7341 61.5948 30.712C61.7176 30.7036 62.0796 30.4145 61.995 30.2084C61.7893 30.113 61.4054 30.2676 60.9202 30.178C60.8077 30.0731 60.6789 29.9356 60.5681 29.8242C60.4289 29.2984 60.4663 29.0352 60.5908 28.5272C60.7531 28.3567 60.7918 28.3074 61.0005 28.2063ZM61.6017 29.9102C62.2668 29.5103 62.1638 28.543 61.2886 28.6228C61.2367 28.6601 61.0237 28.8089 60.9958 28.8505C60.6359 29.3816 61.0503 29.8989 61.6017 29.9102Z" fill="white"/>
<path d="M51.9682 27.4102C52.1954 27.388 52.2744 27.3587 52.4419 27.4955C52.5187 27.7892 52.4749 29.9066 52.4719 30.3329C51.9094 30.2485 51.8755 30.1904 51.3477 30.359C51.206 30.3192 51.0394 30.258 50.8977 30.2104C50.0836 29.9523 50.0737 27.5647 51.9283 28.305C51.9622 28.0255 51.9618 27.6958 51.9682 27.4102ZM50.9076 29.6386C51.1399 29.7756 51.2348 29.8691 51.5088 29.8751C52.2804 29.4781 52.0438 28.5784 51.3151 28.6164C50.7869 28.9121 50.8067 29.0591 50.9076 29.6386Z" fill="white"/>
<path d="M54.1514 27.4105C54.7187 27.4395 55.3834 27.2907 55.8498 27.6801C56.0267 27.8294 56.1357 28.0446 56.1508 28.2759C56.18 28.6871 56.0198 28.9245 55.7707 29.2124C55.4714 29.3361 55.3349 29.3528 55.0133 29.3292C54.9458 29.323 54.8127 29.3114 54.744 29.3173C54.3752 29.349 54.7822 30.3515 54.3052 30.3675C54.0458 30.1684 54.0909 27.7983 54.1514 27.4105ZM54.5791 28.8802C54.9763 28.8886 55.1717 28.8872 55.5694 28.7906C55.9043 27.8637 55.2808 27.9166 54.5787 27.9246C54.5465 28.1798 54.571 28.6088 54.5791 28.8802Z" fill="white"/>
<path d="M69.18 28.1527C69.4879 28.1546 69.5742 28.1894 69.87 28.2709C70.1371 28.7298 70.202 29.0124 70.1724 29.5539C70.1539 29.887 70.2651 30.2717 69.858 30.401C69.4368 30.1557 69.8383 29.1404 69.4655 28.6514C69.4385 28.6364 69.3668 28.5891 69.3393 28.5909C68.6265 28.6382 68.769 29.5716 68.7617 30.1442C68.629 30.2696 68.5801 30.3456 68.395 30.3058C68.2924 30.1991 68.2997 30.0674 68.2864 29.917C68.2726 29.4825 68.4599 28.3761 67.7011 28.6074C67.2459 29.0235 67.6234 30.1759 67.2755 30.3311C67.1678 30.291 67.0668 30.2654 66.9853 30.1873C66.9543 30.0843 66.9247 28.3945 66.9427 28.2979C67.2833 28.1871 68.015 28.1896 68.3881 28.2391C68.3783 28.2377 68.6089 28.4351 68.6209 28.445C68.8206 28.4335 68.8365 28.2267 69.18 28.1527Z" fill="white"/>
<path d="M58.6843 28.2056C59.9296 28.0123 60.1224 28.7296 59.9918 29.7617C59.7771 30.0537 59.6951 30.1222 59.3679 30.2759C58.8947 30.3374 58.8419 30.2865 58.3867 30.1397C58.2532 29.9886 58.1505 29.9021 58.0814 29.706C57.8718 29.1127 58.0402 28.4246 58.6843 28.2056ZM59.0746 29.9008C59.872 29.6257 59.8085 28.7113 58.9643 28.567C58.6705 28.7597 58.2257 29.073 58.4919 29.5435C58.5859 29.7092 58.8784 29.8706 59.0746 29.9008Z" fill="white"/>
<path d="M65.2315 28.1981C65.6 28.1569 65.7481 28.1799 66.0946 28.2688L66.3549 28.625C66.3884 28.9498 66.4077 29.8367 66.3579 30.1821C66.3282 30.3867 65.8902 30.1797 65.7296 30.1974C65.5875 30.2131 65.4192 30.275 65.268 30.3264C65.1203 30.2622 64.8854 30.1944 64.7261 30.1432C64.2739 29.1112 65.0254 29.0691 65.8185 29.0401C65.8087 28.8292 65.8173 28.689 65.706 28.5101C65.3522 28.3017 65.308 28.8438 64.9902 28.8174C64.8193 28.8033 64.6866 28.8417 64.6772 28.6256C64.8249 28.3758 64.9593 28.2718 65.2315 28.1981ZM65.6919 29.9014C65.7945 29.799 65.8172 29.7284 65.8756 29.5963C65.8473 29.2298 65.5317 29.2994 65.2552 29.319C64.7733 29.8369 65.2247 29.9183 65.6919 29.9014Z" fill="white"/>
<path d="M43.4912 27.4353C43.8339 27.3951 44.621 27.4006 44.983 27.3964C45.1441 27.6344 45.1891 27.7021 45.2952 27.9733C45.1084 27.9255 44.2444 27.9325 44.0095 27.9307L44.0164 28.5596L45.2475 28.5672L45.3485 29.1197C44.9105 29.1172 44.4729 29.1019 44.0362 29.0738C44.0121 29.4183 44.1173 30.1004 43.8923 30.3063C43.7072 30.3369 43.6759 30.2894 43.4809 30.2145C43.5136 29.3018 43.453 28.3734 43.4912 27.4353Z" fill="white"/>
<path d="M64.0524 28.2043C64.1808 28.2066 64.2443 28.1997 64.3633 28.2556C64.3985 28.4016 64.3749 28.3918 64.3289 28.5564L63.65 28.8205C63.62 29.1977 63.693 30.0195 63.5238 30.3141C63.4795 30.3066 63.2661 30.2713 63.2472 30.2513C62.902 29.8883 63.2215 28.9012 63.0999 28.4055C63.0849 28.3446 63.0931 28.3134 63.1158 28.2734C63.428 28.1993 63.7041 28.2909 64.0524 28.2043Z" fill="white"/>
<path d="M57.4304 28.1986C57.5789 28.2031 57.6932 28.1996 57.816 28.2812C57.9426 28.5573 57.2655 28.7623 57.0611 28.8486C56.9486 29.3662 57.022 29.8319 56.8966 30.3677C56.8262 30.3924 56.8051 30.3809 56.733 30.3642C56.4754 30.0887 56.5239 28.6164 56.6368 28.2842C56.8764 28.2189 57.0482 28.3022 57.4304 28.1986Z" fill="white"/>
</svg>
